<svg xmlns="http://www.w3.org/2000/svg" width="734.471" height="111.895" viewBox="0 0 734.47122 111.89472">
  <style>
    /* <![CDATA[ */
    .smart {
      fill:#385723
    }
    .frog {
      fill:#a9d18e
    }
    .logo {
      fill:#005288
    }
    /* ]]> */
  </style>
  <g class="logotype">
    <g class="text">
      <g class="smart"><path
        d="M-.13 82.353h45.27L24.86 57.157q-2.253-2.868-2.56-6.145-.205-3.277 1.127-6.043 1.434-2.868 4.097-4.711 2.765-1.946 6.452-1.946h45.167V50.5h-44.04l20.176 25.195q2.254 2.868 2.459 6.145.307 3.278-1.025 6.146-1.331 2.765-4.096 4.71-2.663 1.845-6.35 1.845H-.13V82.353zM108.497 54.187q4.097 0 7.886 1.434 3.79 1.331 6.76 4.2 2.765-2.664 6.35-4.098 3.585-1.536 7.681-1.536h16.49q4.2 0 7.886 1.639 3.687 1.536 6.35 4.301 2.766 2.663 4.302 6.35 1.639 3.688 1.639 7.887V94.54h-12.29V74.364q0-3.687-2.561-5.736-2.458-2.15-5.94-2.15h-15.876q-3.277 0-5.633 2.355-2.253 2.253-2.253 5.53v20.178h-12.29V74.364q0-3.687-2.56-5.736-2.459-2.15-5.941-2.15H92.622q-3.278 0-5.633 2.355-2.254 2.253-2.254 5.53v20.178h-12.29V74.364q0-4.2 1.536-7.887 1.639-3.687 4.302-6.35 2.765-2.765 6.452-4.301 3.687-1.639 7.887-1.639h15.875zM230.438 94.54h-32.16q-4.2 0-7.886-1.536-3.687-1.639-6.453-4.301-2.663-2.766-4.301-6.453-1.537-3.687-1.537-7.886 0-4.2 1.537-7.887 1.638-3.687 4.301-6.35 2.766-2.765 6.453-4.301 3.687-1.639 7.886-1.639h31.648q4.199 0 7.886 1.639 3.687 1.536 6.35 4.301 2.766 2.663 4.302 6.35 1.639 3.688 1.639 7.887V94.54h-12.29V74.364q0-3.278-2.357-5.53-2.253-2.357-5.53-2.357h-31.648q-3.277 0-5.633 2.356-2.253 2.253-2.253 5.53 0 3.278 2.253 5.634 2.356 2.253 5.633 2.253h32.16v12.29zM253.749 94.54V74.365q0-4.2 1.536-7.887 1.639-3.687 4.302-6.35 2.765-2.765 6.452-4.301 3.687-1.639 7.886-1.639h22.02v12.29h-22.02q-3.277 0-5.633 2.356-2.253 2.253-2.253 5.53v20.178h-12.29zM310.858 54.187h32.672v12.29h-32.672v7.887q0 3.277 2.253 5.633 2.356 2.253 5.633 2.253h31.136v12.29h-31.136q-4.199 0-7.886-1.536-3.687-1.639-6.453-4.301-2.662-2.766-4.301-6.453-1.537-3.687-1.537-7.886v-32.57h12.29v12.393z"
        />
      </g>
      <g class="frog"><path
        d="M365.667 94.804h-12.3V58.883q0-4.196 1.537-7.88 1.64-3.685 4.305-6.345 2.768-2.764 6.458-4.299 3.69-1.637 7.892-1.637h47.253v12.28h-47.253q-3.28 0-5.637 2.354-2.255 2.252-2.255 5.527v7.88h55.145v12.28h-55.145v15.761zM425.127 94.804v-20.16q0-4.197 1.537-7.881 1.64-3.684 4.305-6.345 2.768-2.763 6.458-4.298 3.69-1.638 7.892-1.638h22.038v12.28h-22.038q-3.28 0-5.637 2.355-2.255 2.251-2.255 5.526v20.161h-12.3zM490.224 94.804q-4.202 0-7.892-1.535-3.69-1.638-6.457-4.298-2.665-2.764-4.305-6.448-1.538-3.684-1.538-7.88t1.538-7.88q1.64-3.684 4.305-6.345 2.767-2.763 6.457-4.298 3.69-1.638 7.892-1.638h33.928q4.202 0 7.892 1.638 3.69 1.535 6.355 4.298 2.768 2.66 4.305 6.345 1.64 3.684 1.64 7.88t-1.64 7.88q-1.537 3.684-4.305 6.448-2.665 2.66-6.355 4.298-3.69 1.535-7.892 1.535h-33.928zm0-28.041q-3.28 0-5.637 2.354-2.255 2.251-2.255 5.526t2.255 5.629q2.357 2.251 5.637 2.251h33.928q3.28 0 5.535-2.251 2.357-2.354 2.357-5.629 0-3.275-2.357-5.526-2.255-2.354-5.535-2.354h-33.928zM603.907 99.614q2.05 0 3.382-1.433 1.435-1.33 1.435-3.377v-20.16q0-3.276-2.357-5.527-2.255-2.354-5.535-2.354h-31.673q-3.28 0-5.637 2.354-2.255 2.251-2.255 5.526t2.255 5.629q2.357 2.251 5.637 2.251h32.185v12.281H569.16q-4.202 0-7.892-1.535-3.69-1.638-6.458-4.298-2.665-2.764-4.305-6.448-1.537-3.684-1.537-7.88t1.537-7.88q1.64-3.684 4.305-6.345 2.768-2.763 6.458-4.298 3.69-1.638 7.892-1.638h31.673q4.202 0 7.892 1.638 3.69 1.535 6.355 4.298 2.768 2.66 4.305 6.345 1.64 3.684 1.64 7.88v20.161q0 3.582-1.332 6.652-1.333 3.173-3.69 5.424-2.358 2.354-5.535 3.684-3.075 1.33-6.56 1.33v-12.28z"
        />
      </g>
    </g>
    <path class="logo"
      d="M734.459 58.218c0 2.535.803 10.174-10.44 9.891-11.243-.282-34.531-8.485-43.456-7.403-17.85 2.166-17.503 11.243-27.295 11.467-19.585.448-19.668-16.664-17.702-25.611 1.966-8.948-20.215-25.571-21.66-32.675-1.445-7.104 1.647-10.1 5.07-11.614 3.424-1.513 9.74-3.966 14.625 1.467 4.885 5.432 4.429 38.655 12.95 38.674 8.52.019 8.206-23.113 7.999-26.381-.208-3.269 1.14-7.957 7.195-8.563 6.054-.606 6.19 5.895 6.301 9.606.112 3.711-5.102 14.93-7.418 18.85-1.336 2.262-1.137 5.481 1.829 6.416 4.121 1.3 8.649-3.12 12.491-5.687 3.842-2.568 21.284-30.4 24.233-32.354 2.95-1.954 8.1-6.998 16.635-.141 8.535 6.856 3.6 14.439-.265 18.073-3.864 3.633-38.628 17.698-43.498 24.883-4.87 7.185 3.197 8.82 9.56 10.25 6.362 1.432 27.815-6.127 41.266-7.572 10.022-1.076 11.58 5.89 11.58 8.425z"
    />
  </g>
</svg>
